<?xml version="1.0" encoding="UTF-8"?>
<svg version="1.1" xmlns="http://www.w3.org/2000/svg" width="128" height="128">
<path d="M0 0 C42.24 0 84.48 0 128 0 C128 42.24 128 84.48 128 128 C85.76 128 43.52 128 0 128 C0 85.76 0 43.52 0 0 Z " fill="#C370D3" transform="translate(0,0)"/>
<path d="M0 0 C42.24 0 84.48 0 128 0 C128 10.56 128 21.12 128 32 C116.72262774 32 116.72262774 32 113 31.0625 C111.9171875 30.80146484 111.9171875 30.80146484 110.8125 30.53515625 C109 30 109 30 107 29 C107 28.34 107 27.68 107 27 C108.42043364 26.08686409 109.8419801 25.17540569 111.26953125 24.2734375 C115.22175729 21.36502737 118.4493248 17.65202559 120 13 C118.5459375 13.8971875 118.5459375 13.8971875 117.0625 14.8125 C107.83865785 20.07793216 96.21962327 22.81110343 85.6953125 20.4921875 C85.13585937 20.32976563 84.57640625 20.16734375 84 20 C86.08769739 15.55046313 88.84611013 11.56082008 91.5390625 7.4609375 C93.17015856 5.19035494 93.17015856 5.19035494 93 3 C92.33742188 3.57621094 91.67484375 4.15242187 90.9921875 4.74609375 C87.53805512 7.34796631 84.00280081 9.1815854 80.125 11.0625 C79.44308594 11.40087891 78.76117188 11.73925781 78.05859375 12.08789062 C76.04773639 13.07799849 74.02689712 14.0432163 72 15 C71.08105957 15.44569336 71.08105957 15.44569336 70.14355469 15.90039062 C66.30295781 17.67817104 63.2099118 18.32018344 59 18.375 C38.79246667 19.5814199 24.09562712 30.83803131 10.38671875 44.62890625 C8.39450442 46.60807826 6.38182048 48.48724662 4.25 50.3125 C3.65703125 50.82425781 3.0640625 51.33601563 2.453125 51.86328125 C1 53 1 53 0 53 C0 35.51 0 18.02 0 0 Z " fill="#FCFBFC" transform="translate(0,0)"/>
<path d="M0 0 C0.495 0.99 0.495 0.99 1 2 C-0.29296875 4.64453125 -0.29296875 4.64453125 -2.1875 7.8125 C-2.79980469 8.85019531 -3.41210938 9.88789063 -4.04296875 10.95703125 C-5.87400886 13.8040976 -7.83420051 16.40200105 -10 19 C3.7228582 19.54810232 16.37995002 17.74669998 28 10 C26.13990982 16.61365397 20.63543966 22.26623134 15 26 C14.34 26 13.68 26 13 26 C13 26.66 13 27.32 13 28 C19.93 28.99 26.86 29.98 34 31 C34 42.22 34 53.44 34 65 C33.01 65.495 33.01 65.495 32 66 C32.2165625 64.515 32.2165625 64.515 32.4375 63 C32.42826132 58.41761423 30.10909807 56.1465825 27.03515625 52.96875 C26.36355469 52.3190625 25.69195312 51.669375 25 51 C24.42121094 50.4121875 23.84242187 49.824375 23.24609375 49.21875 C17.30040002 43.5684147 10.16272016 39.87310008 3 36 C3 36.99 3 37.98 3 39 C1.23999081 40.76000919 -1.17494094 40.21414179 -3.5625 40.25 C-9.63798526 40.19937096 -14.78024804 39.54035476 -19.703125 35.65625 C-22.01309632 32.70616614 -21.17808267 29.62101424 -21 26 C-21.556875 26.969375 -22.11375 27.93875 -22.6875 28.9375 C-25 32 -25 32 -27.75 32.875 C-28.4925 32.91625 -29.235 32.9575 -30 33 C-29.34 33.66 -28.68 34.32 -28 35 C-28.33 35.99 -28.66 36.98 -29 38 C-29.9075 37.896875 -30.815 37.79375 -31.75 37.6875 C-38.40793839 37.67391237 -45.55329806 40.96905343 -50.59765625 45.15625 C-54.22852649 47.94286911 -56.5511595 47.3016163 -61 47 C-59.72278474 42.00724943 -57.82669043 39.42388092 -54 36 C-67.4177964 43.06080318 -75.87617584 50.92978496 -82 65 C-84.29079881 73.69973882 -82.96910056 82.38706397 -81 91 C-80.65549886 92.99810662 -80.31622777 94.99722415 -80 97 C-85.44627319 92.56229592 -88.33212318 85.6715073 -90 79 C-90.33 82.3 -90.66 85.6 -91 89 C-91.66 89 -92.32 89 -93 89 C-94.8302752 83.50917441 -94.50569303 77.49620338 -94.62475586 71.74169922 C-94.6663179 70.17398551 -94.72759635 68.60666078 -94.80932617 67.04052734 C-95.4742571 54.06820476 -95.4742571 54.06820476 -91.79541016 48.90722656 C-85.36641329 43 -85.36641329 43 -82 43 C-81.72671875 42.40574219 -81.4534375 41.81148437 -81.171875 41.19921875 C-74.382352 28.45754725 -57.04419736 21.38486206 -44.01171875 17.390625 C-41.32006085 16.86797298 -38.67680334 16.84319623 -35.9375 16.75 C-29.01648438 16.24132847 -24.07871514 14.19459358 -18 11 C-16.78340591 10.4134757 -15.56452239 9.83168364 -14.34375 9.25390625 C-6.50113414 5.60400991 -6.50113414 5.60400991 0 0 Z " fill="#2B053E" transform="translate(94,1)"/>
<path d="M0 0 C1 2 1 2 0.6875 5.375 C0.593071 9.20700393 0.593071 9.20700393 3.75 11.375 C8.37458594 13.68729297 11.83401885 14.13791495 17 14.125 C18.03125 14.12757812 19.0625 14.13015625 20.125 14.1328125 C22.59657009 14.01863671 24.6442958 13.71350656 27 13 C38.59663121 25.15957447 38.59663121 25.15957447 39.25 33 C39.1675 33.66 39.085 34.32 39 35 C32.61366062 37.25400213 32.61366062 37.25400213 29.75390625 36.0703125 C26.19408653 34.68677973 22.884526 34.70783709 19.125 34.75 C18.44308594 34.74226563 17.76117188 34.73453125 17.05859375 34.7265625 C13.43319392 34.74037355 10.76974866 35.06988918 7.2421875 36.140625 C4 37 4 37 1.83984375 36.1484375 C0.92912109 35.57996094 0.92912109 35.57996094 0 35 C-4.61486808 34.2900203 -8.00071966 34.37544979 -12 36.875 C-15.37976738 40.46600285 -15.11003565 42.77636349 -15.0625 47.625 C-15.05347656 48.81351563 -15.04445312 50.00203125 -15.03515625 51.2265625 C-15.02355469 52.14179687 -15.01195312 53.05703125 -15 54 C-21.85618326 52.07443364 -28.43252132 49.7527517 -35 47 C-34.42525709 53.75921211 -34.42525709 53.75921211 -32 60 C-28.89039516 62.2691711 -25.59773051 63.6637001 -22 65 C-22 65.33 -22 65.66 -22 66 C-30.58 66 -39.16 66 -48 66 C-51.75687939 50.97248244 -52.83468295 39.44495705 -45.17578125 25.734375 C-43.51335479 23.10416681 -41.80683817 20.53261868 -40 18 C-39.34 18.66 -38.68 19.32 -38 20 C-38.33 20.33 -38.66 20.66 -39 21 C-33.21970873 21.45335618 -31.37231303 20.58620623 -27 17 C-20.8150654 13.79799026 -15.027825 11.20138352 -8 12 C-8.7763932 8.9254644 -8.7763932 8.9254644 -11 7 C-9.9275 6.95875 -8.855 6.9175 -7.75 6.875 C-3.76438296 6.35391691 -3.76438296 6.35391691 -1.5625 2.9375 C-1.046875 1.968125 -0.53125 0.99875 0 0 Z " fill="#8B20B7" transform="translate(73,26)"/>
<path d="M0 0 C0.99 0.33 1.98 0.66 3 1 C3 21.46 3 41.92 3 63 C-13.98830902 63.08021762 -13.98830902 63.08021762 -21.296875 63.09765625 C-26.26046082 63.10955628 -31.22397202 63.1235486 -36.1875 63.15087891 C-40.19458579 63.17280172 -44.20159141 63.18460907 -48.2087326 63.18975449 C-49.72834279 63.19341569 -51.24794919 63.20056375 -52.76752472 63.21146011 C-64.82534159 63.29438925 -76.46584948 63.08117696 -87.3125 57.25 C-87.99183594 56.89873047 -88.67117187 56.54746094 -89.37109375 56.18554688 C-94.14588995 53.64605585 -98.15947517 50.84052483 -102 47 C-100 46 -100 46 -97.8203125 46.671875 C-96.93085937 47.02765625 -96.04140625 47.3834375 -95.125 47.75 C-79.230289 53.649068 -60.27200394 56.55848709 -44 50 C-23.8827318 40.53305026 -9.41300272 19.51991269 0 0 Z " fill="#2C063E" transform="translate(125,65)"/>
<path d="M0 0 C0.66 0.33 1.32 0.66 2 1 C1.43152344 1.43828125 0.86304688 1.8765625 0.27734375 2.328125 C-9.10743196 10.03648835 -15.11481281 19.92461178 -17 32 C-18.12731458 43.92413031 -15.65284382 55.02073427 -9 65 C-8.2265625 66.16015625 -8.2265625 66.16015625 -7.4375 67.34375 C-3.80848192 72.38405289 -0.04424152 75.70796837 5.27734375 78.90625 C5.84582031 79.2671875 6.41429687 79.628125 7 80 C7 80.33 7 80.66 7 81 C-1.23442944 80.67580986 -8.29789712 78.88996879 -16 76 C-5.97925442 84.75196901 4.75304286 89.61563331 18 91 C18 91.33 18 91.66 18 92 C-1.14 92 -20.28 92 -40 92 C-40 78.47 -40 64.94 -40 51 C-39.67 51.99 -39.34 52.98 -39 54 C-38.34 54 -37.68 54 -37 54 C-37 50.04 -37 46.08 -37 42 C-34.12033053 44.87966947 -33.45145669 48.25691326 -32.1953125 52.078125 C-30.84402526 55.38127159 -29.05594962 58.09242271 -27 61 C-27.32484375 59.56720703 -27.32484375 59.56720703 -27.65625 58.10546875 C-30.92149331 43.18915561 -31.19282567 31.77818029 -22.78125 18.48046875 C-16.86821419 10.24630704 -9.27942045 4.14027184 0 0 Z " fill="#FBFAFB" transform="translate(40,36)"/>
<path d="M0 0 C2.71012808 0.93254964 5.41803435 1.87084994 8.125 2.8125 C8.88554688 3.07353516 9.64609375 3.33457031 10.4296875 3.60351562 C20.79645456 7.22294723 20.79645456 7.22294723 24.9375 10.5625 C27.04790329 12.20408476 27.04790329 12.20408476 30.1875 12.875 C33.35937221 13.81096229 35.95149997 14.82053894 38.875 16.3125 C39.63554688 16.70050781 40.39609375 17.08851562 41.1796875 17.48828125 C43.5579868 19.46339247 43.68767578 20.99262003 44 24 C42.5459375 24.8971875 42.5459375 24.8971875 41.0625 25.8125 C37.76947958 27.71127509 37.76947958 27.71127509 37 31 C37.61488281 31.04898438 38.22976562 31.09796875 38.86328125 31.1484375 C39.67152344 31.22320312 40.47976562 31.29796875 41.3125 31.375 C42.11300781 31.44460937 42.91351563 31.51421875 43.73828125 31.5859375 C46 32 46 32 49 34 C50.1875 37.125 50.1875 37.125 51 40 C49.71984364 40.81014726 48.42487047 41.59687685 47.125 42.375 C46.40570313 42.81585938 45.68640625 43.25671875 44.9453125 43.7109375 C37.33819508 47.0403125 29.318295 47.32042947 21.125 47.25 C20.20203125 47.25773437 19.2790625 47.26546875 18.328125 47.2734375 C17.43867187 47.27085938 16.54921875 47.26828125 15.6328125 47.265625 C14.83762207 47.26336914 14.04243164 47.26111328 13.22314453 47.25878906 C10.76937196 46.97315334 9.12868737 46.22385851 7 45 C7 44.34 7 43.68 7 43 C5.46900151 41.80161572 5.46900151 41.80161572 3.5 40.5625 C-3.74115731 35.31845903 -8.20343846 28.38968461 -11 20 C-3.08 19.67 4.84 19.34 13 19 C10.69 18.01 8.38 17.02 6 16 C2.30565972 13.50382414 1.62816625 11.08414166 0.75 6.875 C0.34814365 4.54007602 0 2.36792297 0 0 Z " fill="#E7A296" transform="translate(37,72)"/>
<path d="M0 0 C3.76363605 1.6363635 5.83520592 3.54489081 8 7 C8.328125 9.47265625 8.328125 9.47265625 8.25 12.0625 C8.23453125 12.91972656 8.2190625 13.77695313 8.203125 14.66015625 C8 17 8 17 7 20 C13.91663627 18.90109517 20.42736799 17.43430815 27 15 C28.32132424 18.63364165 28.00947976 19.97709058 26.5 23.625 C24.22099464 27.96689813 22.24087221 27.75391191 17 30 C22.94 30.33 28.88 30.66 35 31 C31.0381216 38.9237568 24.14119663 45.79633734 17 51 C16.01 51 15.02 51 14 51 C13.67902344 49.81857422 13.67902344 49.81857422 13.3515625 48.61328125 C12.23122363 45.7767034 12.23122363 45.7767034 9.3984375 44.85546875 C7.90183594 44.52482422 7.90183594 44.52482422 6.375 44.1875 C5.37210938 43.95417969 4.36921875 43.72085938 3.3359375 43.48046875 C2.17964844 43.24263672 2.17964844 43.24263672 1 43 C1.33984375 41.09375 1.33984375 41.09375 2 39 C2.845625 38.505 3.69125 38.01 4.5625 37.5 C5.366875 37.005 6.17125 36.51 7 36 C7 34.68 7 33.36 7 32 C1.99420565 27.78989529 -3.77521689 25.70876399 -10 24 C-14.72897196 20.81308411 -14.72897196 20.81308411 -16 17 C-16.50379515 12.12722723 -16.76454531 8.26545431 -14.1875 4 C-9.47807521 -0.30575981 -6.14495403 -0.70320777 0 0 Z " fill="#E6A7B7" transform="translate(73,60)"/>
<path d="M0 0 C-2.88278567 1.92185711 -5.40104359 2.96706172 -8.625 4.1875 C-16.94345078 7.60148888 -24.85779528 12.71559057 -29 21 C-22.67328562 22.22856937 -17.35048636 21.53494008 -11.05273438 20.40820312 C-8.86328125 20.08203125 -8.86328125 20.08203125 -5 20 C-2.48046875 21.94921875 -2.48046875 21.94921875 -1 24 C-2.2375 24.8353125 -2.2375 24.8353125 -3.5 25.6875 C-5.77201534 27.87631478 -6.00150949 29.0146687 -6.33203125 32.2265625 C-6.31422008 35.49669399 -6.21497299 38.73718771 -6 42 C-12.85618326 40.07443364 -19.43252132 37.7527517 -26 35 C-25.42525709 41.75921211 -25.42525709 41.75921211 -23 48 C-19.89039516 50.2691711 -16.59773051 51.6637001 -13 53 C-13 53.33 -13 53.66 -13 54 C-21.58 54 -30.16 54 -39 54 C-42.75687939 38.97248244 -43.83468295 27.44495705 -36.17578125 13.734375 C-34.51335479 11.10416681 -32.80683817 8.53261868 -31 6 C-30.34 6.66 -29.68 7.32 -29 8 C-29.33 8.33 -29.66 8.66 -30 9 C-24.21764695 9.45351789 -22.37544021 8.58344658 -18 5 C-15.09765625 3.515625 -15.09765625 3.515625 -12.0625 2.25 C-11.06347656 1.82203125 -10.06445312 1.3940625 -9.03515625 0.953125 C-5.85123406 -0.04671672 -3.31547841 -0.17787962 0 0 Z " fill="#BA62CE" transform="translate(64,38)"/>
<path d="M0 0 C0.33 0 0.66 0 1 0 C1 15.51 1 31.02 1 47 C-17.48 47 -35.96 47 -55 47 C-55 46.67 -55 46.34 -55 46 C-54.34515625 45.92523438 -53.6903125 45.85046875 -53.015625 45.7734375 C-36.22110868 43.35388854 -23.29127677 33.0472458 -13 20 C-8.82922468 14.19745142 -4.88379865 8.21780087 -1.2734375 2.05078125 C-0.85320312 1.37402344 -0.43296875 0.69726562 0 0 Z " fill="#FBFAFB" transform="translate(127,81)"/>
<path d="M0 0 C2.9921875 1.53125 2.9921875 1.53125 5.875 3.5 C6.84179688 4.1496875 7.80859375 4.799375 8.8046875 5.46875 C9.52914062 5.9740625 10.25359375 6.479375 11 7 C10.65625 9.3984375 10.65625 9.3984375 10 12 C7.5 13.625 7.5 13.625 5 15 C4.67 15.99 4.34 16.98 4 18 C4.61488281 18.04898438 5.22976562 18.09796875 5.86328125 18.1484375 C6.67152344 18.22320312 7.47976562 18.29796875 8.3125 18.375 C9.11300781 18.44460937 9.91351563 18.51421875 10.73828125 18.5859375 C13 19 13 19 16 21 C17.1875 24.125 17.1875 24.125 18 27 C16.71984364 27.81014726 15.42487047 28.59687685 14.125 29.375 C13.40570313 29.81585938 12.68640625 30.25671875 11.9453125 30.7109375 C4.21788928 34.09296623 -3.81140501 34.27679317 -12.125 34.125 C-13.08148438 34.11597656 -14.03796875 34.10695312 -15.0234375 34.09765625 C-17.34923525 34.07439827 -19.67447294 34.04172213 -22 34 C-22 33.01 -22 32.02 -22 31 C-20.44033782 30.491217 -18.87710759 29.99336531 -17.3125 29.5 C-16.44238281 29.2215625 -15.57226562 28.943125 -14.67578125 28.65625 C-11.99599317 27.9990173 -9.74502999 27.92581 -7 28 C-5.65667272 27.70955086 -4.31774196 27.39044206 -3 27 C-3 26.34 -3 25.68 -3 25 C-2.34 25 -1.68 25 -1 25 C-1.33 24.34 -1.66 23.68 -2 23 C-4.44954477 22.4585413 -4.44954477 22.4585413 -7.3125 22.125 C-10.80389822 21.53931681 -12.76513322 21.15479856 -15.75 19.1875 C-17 17 -17 17 -17.0625 14.4375 C-15.64266 11.18022001 -14.1648678 10.55620571 -11 9 C-7.88671875 8.48828125 -7.88671875 8.48828125 -4.6875 8.3125 C-3.61886719 8.24675781 -2.55023438 8.18101563 -1.44921875 8.11328125 C-0.23685547 8.05720703 -0.23685547 8.05720703 1 8 C1 7.34 1 6.68 1 6 C-1.97 5.01 -4.94 4.02 -8 3 C-8 2.34 -8 1.68 -8 1 C-5.15311939 -0.4234403 -3.16512369 -0.27456495 0 0 Z " fill="#D09663" transform="translate(70,85)"/>
<path d="M0 0 C3.76877031 1.63859579 5.81954834 3.55170145 8 7 C8.74383684 11.4848986 8.49961639 15.69544611 6.875 19.9375 C3.52110625 23.62678312 -0.0820424 25.15207566 -5 25.5 C-9.70281412 25.32849622 -11.81503187 23.34033243 -15 20 C-16.44526641 15.66420076 -16.53564501 11.53126728 -16 7 C-11.94080546 0.28133318 -7.38249974 -0.84482831 0 0 Z " fill="#FCFAFC" transform="translate(73,60)"/>
<path d="M0 0 C10.1290135 3.7642833 18.36493641 10.50201116 26 18 C26.58394531 18.57105469 27.16789062 19.14210938 27.76953125 19.73046875 C29.1875 21.25 29.1875 21.25 31 24 C30.65357717 28.36040904 28.74575847 31.75890886 26.6875 35.5625 C26.09324219 36.67753906 25.49898437 37.79257813 24.88671875 38.94140625 C23.1524973 41.75278389 21.43959713 43.79736154 19 46 C18.98582031 44.83984375 18.97164062 43.6796875 18.95703125 42.484375 C18.60315039 28.44810475 15.64652737 15.26301205 5.0625 5.1484375 C3.83610334 4.10501131 2.59044925 3.08346695 1.3203125 2.09375 C0.88460937 1.7328125 0.44890625 1.371875 0 1 C0 0.67 0 0.34 0 0 Z " fill="#F6F3F6" transform="translate(96,36)"/>
<path d="M0 0 C2.72286806 4.08430208 2.38524534 6.14590877 2 11 C-1.03798811 13.02532541 -1.61478761 13.25044826 -5.01953125 13.23046875 C-5.79490234 13.22853516 -6.57027344 13.22660156 -7.36914062 13.22460938 C-8.57860352 13.20624023 -8.57860352 13.20624023 -9.8125 13.1875 C-10.60720703 13.18685547 -11.40191406 13.18621094 -12.22070312 13.18554688 C-16.59866263 13.15295661 -20.67965592 12.76431874 -25 12 C-27.76864953 12.36858988 -27.76864953 12.36858988 -30 13 C-31.32 10.36 -32.64 7.72 -34 5 C-29.29235351 2.21653975 -25.43229112 1.56049453 -20.0625 1.6875 C-19.38509766 1.68427734 -18.70769531 1.68105469 -18.00976562 1.67773438 C-13.36641186 1.72670551 -9.41622495 2.63947356 -5 4 C-2.67828408 3.96624167 -2.67828408 3.96624167 -1 3 C-0.67 2.01 -0.34 1.02 0 0 Z " fill="#BA5ECF" transform="translate(112,58)"/>
<path d="M0 0 C0.17015625 0.89203125 0.3403125 1.7840625 0.515625 2.703125 C0.75796875 3.87359375 1.0003125 5.0440625 1.25 6.25 C1.48203125 7.41015625 1.7140625 8.5703125 1.953125 9.765625 C3.30079067 13.92930848 5.09924185 15.96462767 8.921875 18.046875 C9.52515625 18.27890625 10.1284375 18.5109375 10.75 18.75 C11.8225 19.1625 12.895 19.575 14 20 C14 20.33 14 20.66 14 21 C5.42 21 -3.16 21 -12 21 C-14.52780931 13.41657208 -14.52780931 13.41657208 -14 10 C-12.35546875 8.0859375 -12.35546875 8.0859375 -10.1875 6.375 C-7.17399238 3.97486252 -7.17399238 3.97486252 -4.42578125 1.2890625 C-3 0 -3 0 0 0 Z " fill="#B5779A" transform="translate(37,71)"/>
<path d="M0 0 C2.71012808 0.93254964 5.41803435 1.87084994 8.125 2.8125 C8.88554688 3.07353516 9.64609375 3.33457031 10.4296875 3.60351562 C22.18848858 7.70895911 22.18848858 7.70895911 24.375 11.1875 C24.58125 11.785625 24.7875 12.38375 25 13 C22.20848132 15.76512134 19.47735656 18.14295482 16 20 C11.21957266 19.94611435 7.87538246 17.61463024 4.0625 14.9375 C0.95420343 10.51053216 0 5.39397865 0 0 Z " fill="#D99EA4" transform="translate(37,72)"/>
<path d="M0 0 C1.70929687 0.52980469 1.70929687 0.52980469 3.453125 1.0703125 C8.87808559 2.43013742 13.58532693 1.46390438 18.99609375 0.45703125 C21.171875 0.1171875 21.171875 0.1171875 25 0 C27.515625 1.9453125 27.515625 1.9453125 29 4 C21.64786635 9.51410023 14.46685967 10.31485208 5.5 10.125 C4.26636719 10.11146484 4.26636719 10.11146484 3.0078125 10.09765625 C1.00507917 10.07436865 -0.99750154 10.03850959 -3 10 C-2.25 3.375 -2.25 3.375 0 0 Z " fill="#A740C9" transform="translate(34,58)"/>
<path d="M0 0 C0.66 0.33 1.32 0.66 2 1 C1.37749963 5.2330025 0.52484328 8.50977546 -2 12 C-6.18571523 14.49759206 -10.51494266 16.51938497 -15.4296875 15.4921875 C-19.38257849 13.65329682 -21.27118391 12.05970744 -23 8 C-20.45376403 4.80199714 -18.28504279 4.48830232 -14.3125 4 C-10.43791919 3.45051399 -7.00382491 2.78400515 -3.375 1.3125 C-2.26125 0.879375 -1.1475 0.44625 0 0 Z " fill="#DBA1A5" transform="translate(99,75)"/>
<path d="M0 0 C0.44730469 0.39832031 0.89460938 0.79664062 1.35546875 1.20703125 C4.74779939 4.17984125 8.01840224 6.8282194 12 9 C10.40210709 12.4432925 8.7211147 15.32879617 6 18 C2.11797107 18.98495923 -1.43134768 18.54845974 -5.375 18.0625 C-6.39722656 17.97419922 -7.41945313 17.88589844 -8.47265625 17.79492188 C-10.98883349 17.57152296 -13.49271525 17.30569661 -16 17 C-13 15 -13 15 -9.4375 14.25 C-7.7359375 13.63125 -7.7359375 13.63125 -6 13 C-4.69940936 10.26814404 -4.69940936 10.26814404 -4 7 C-2.77048164 4.59400132 -1.391409 2.31901499 0 0 Z " fill="#B77A99" transform="translate(103,74)"/>
<path d="M0 0 C5.61928583 1.56603048 12.33718653 2.11562529 18.00390625 0.3984375 C18.60074219 0.28757813 19.19757813 0.17671875 19.8125 0.0625 C22.5625 2.5 22.5625 2.5 24.8125 5.0625 C24.4825 5.7225 24.1525 6.3825 23.8125 7.0625 C22.719375 6.85625 21.62625 6.65 20.5 6.4375 C16.7286599 5.65903475 16.7286599 5.65903475 13.8125 8.0625 C11.48413086 8.07421875 11.48413086 8.07421875 8.77734375 7.75 C7.80345703 7.64429688 6.82957031 7.53859375 5.82617188 7.4296875 C4.81103516 7.30851562 3.79589844 7.18734375 2.75 7.0625 C0.73943534 6.82341957 -1.27227948 6.59376196 -3.28515625 6.375 C-4.17726807 6.26800781 -5.06937988 6.16101562 -5.98852539 6.05078125 C-8.3997425 5.80585684 -8.3997425 5.80585684 -10.1875 8.0625 C-11.5075 8.0625 -12.8275 8.0625 -14.1875 8.0625 C-12.4375 2.3125 -12.4375 2.3125 -10.1875 0.0625 C-6.35397532 -0.83950581 -3.80290059 -1.11850017 0 0 Z " fill="#64198D" transform="translate(80.1875,38.9375)"/>
<path d="M0 0 C3.30555484 0.3860502 6.58585378 0.21874112 9.90625 0.08984375 C12.140625 0.25 12.140625 0.25 15.140625 2.25 C16.130625 2.58 17.120625 2.91 18.140625 3.25 C16.54486301 4.75893816 14.93872589 6.25691076 13.328125 7.75 C12.43480469 8.5853125 11.54148437 9.420625 10.62109375 10.28125 C8.140625 12.25 8.140625 12.25 5.140625 12.25 C4.92664063 11.46238281 4.71265625 10.67476562 4.4921875 9.86328125 C3.37184863 7.0267034 3.37184863 7.0267034 0.5390625 6.10546875 C-0.45867187 5.88503906 -1.45640625 5.66460937 -2.484375 5.4375 C-3.98871094 5.08751953 -3.98871094 5.08751953 -5.5234375 4.73046875 C-6.29429688 4.57191406 -7.06515625 4.41335937 -7.859375 4.25 C-7.484375 2.3125 -7.484375 2.3125 -6.859375 0.25 C-4.31540995 -1.02198253 -2.72353952 -0.45773774 0 0 Z " fill="#E5A299" transform="translate(81.859375,98.75)"/>
<path d="M0 0 C0.66 0.66 1.32 1.32 2 2 C1.67 2.33 1.34 2.66 1 3 C2.65 3.33 4.3 3.66 6 4 C4.44257896 6.64761576 2.86016578 9.19396359 1.0625 11.6875 C-1.19751325 15.31721826 -2.52245835 18.88627071 -3.875 22.92578125 C-5 25 -5 25 -7.125 25.79296875 C-8.053125 25.89544922 -8.053125 25.89544922 -9 26 C-10.13303705 16.51606024 -6.81440976 9.27879236 -1.30078125 1.6484375 C-0.87152344 1.10445312 -0.44226562 0.56046875 0 0 Z " fill="#9124BE" transform="translate(33,44)"/>
<path d="M0 0 C2.45993028 0.2813059 4.91740248 0.57452731 7.375 0.875 C8.42300781 0.99294922 8.42300781 0.99294922 9.4921875 1.11328125 C14.7734375 1.7734375 14.7734375 1.7734375 17 4 C16.19175781 4.31453125 15.38351563 4.6290625 14.55078125 4.953125 C13.48214844 5.38109375 12.41351563 5.8090625 11.3125 6.25 C9.72888672 6.87648438 9.72888672 6.87648438 8.11328125 7.515625 C4.93313372 8.87879368 4.93313372 8.87879368 2.375 11.15625 C-1.22993815 13.95482041 -3.5663708 13.30058503 -8 13 C-6.67020874 7.28189759 -4.43500999 5.47087738 0 2 C0 1.34 0 0.68 0 0 Z " fill="#48126E" transform="translate(41,35)"/>
<path d="M0 0 C0.6909375 -0.01224609 1.381875 -0.02449219 2.09375 -0.03710938 C6.81585397 -0.05042358 10.70138677 0.80216403 15.25 2.1875 C18.07144903 1.91015062 18.07144903 1.91015062 20.25 1.1875 C20.745 2.6725 20.745 2.6725 21.25 4.1875 C18.67545477 5.47477262 16.85930748 5.2846761 13.98046875 5.25 C12.39975586 5.23839844 12.39975586 5.23839844 10.78710938 5.2265625 C8.56575361 5.20065748 6.34439942 5.17461726 4.12304688 5.1484375 C3.06537109 5.14070313 2.00769531 5.13296875 0.91796875 5.125 C-0.04858643 5.11339844 -1.0151416 5.10179688 -2.01098633 5.08984375 C-4.7636972 5.1110903 -4.7636972 5.1110903 -7.4597168 5.75 C-10.26157266 6.28522287 -11.38188949 5.67853255 -13.75 4.1875 C-9.74473168 -0.19922245 -5.640355 0.00514631 0 0 Z " fill="#A63DC9" transform="translate(91.75,59.8125)"/>
<path d="M0 0 C2.005155 0.30077325 4.00398694 0.6435691 6 1 C11.36440378 1.730182 16.58698566 2.11517052 22 2 C22.66 3.32 23.32 4.64 24 6 C21.35757723 8.64242277 20.05587947 8.29852198 16.375 8.3125 C10.85139081 8.21303525 6.92349232 7.50650518 2 5 C0 2.8125 0 2.8125 -1 1 C-0.67 0.67 -0.34 0.34 0 0 Z " fill="#3D0963" transform="translate(74,33)"/>
<path d="M0 0 C0.33 3.63 0.66 7.26 1 11 C-12.97158322 7.00811908 -12.97158322 7.00811908 -19 4 C-19.33 3.34 -19.66 2.68 -20 2 C-17.53990037 0.76995019 -15.86827194 0.86685973 -13.125 0.875 C-12.26132812 0.87242188 -11.39765625 0.86984375 -10.5078125 0.8671875 C-8 1 -8 1 -5.8671875 1.6328125 C-3.10025106 2.17693808 -2.55951832 0 0 0 Z " fill="#C570CE" transform="translate(57,69)"/>
<path d="M0 0 C0.99 1.32 1.98 2.64 3 4 C5.90242109 4.44688397 5.90242109 4.44688397 9.0625 4.1875 C14.85539488 3.92769744 14.85539488 3.92769744 17 5 C18.66619446 5.0396713 20.33391013 5.04384447 22 5 C21.34 6.32 20.68 7.64 20 9 C19.34 8.34 18.68 7.68 18 7 C16.948125 7.433125 16.948125 7.433125 15.875 7.875 C9.94929892 10.1937526 5.35903104 11.47992687 -1 11 C-0.67 7.37 -0.34 3.74 0 0 Z " fill="#CF84CC" transform="translate(81,69)"/>
<path d="M0 0 C2 3 2 3 2 10 C-8.89 10 -19.78 10 -31 10 C-31 9.01 -31 8.02 -31 7 C-30.2575 7.020625 -29.515 7.04125 -28.75 7.0625 C-26.12396672 7.11208096 -26.12396672 7.11208096 -24.15332031 6.50219727 C-21.6387543 5.91575029 -19.37834689 5.88733519 -16.796875 5.90234375 C-15.8171875 5.90556641 -14.8375 5.90878906 -13.828125 5.91210938 C-12.81234375 5.92048828 -11.7965625 5.92886719 -10.75 5.9375 C-9.203125 5.94426758 -9.203125 5.94426758 -7.625 5.95117188 C-5.08327427 5.96293912 -2.54166681 5.97937989 0 6 C0 4.02 0 2.04 0 0 Z " fill="#B04ECC" transform="translate(112,58)"/>
<path d="M0 0 C-2.88278567 1.92185711 -5.40104359 2.96706172 -8.625 4.1875 C-19.04364372 8.49822955 -27.7206606 15.50020901 -32.3203125 26.01953125 C-33.29072245 28.66271081 -34.18873749 31.30418978 -35 34 C-35.33 34 -35.66 34 -36 34 C-35.48161521 24.66907373 -31.63476103 16.63476103 -25 10 C-18.0008123 4.46187534 -9.23380424 -0.97197939 0 0 Z " fill="#ECDFD7" transform="translate(64,38)"/>
<path d="M0 0 C0.66 0.33 1.32 0.66 2 1 C2 1.66 2 2.32 2 3 C1.34 3 0.68 3 0 3 C0 3.66 0 4.32 0 5 C1.093125 5.12375 2.18625 5.2475 3.3125 5.375 C7 6 7 6 10 8 C9.67 8.99 9.34 9.98 9 11 C3.72 11 -1.56 11 -7 11 C-7 8 -7 8 -4.625 5.5 C-3.75875 4.675 -2.8925 3.85 -2 3 C-1.34 2.01 -0.68 1.02 0 0 Z " fill="#E6AAC1" transform="translate(62,83)"/>
<path d="M0 0 C1.39195915 4.17587745 -0.17676781 6.13474776 -2 10 C-2.66 10 -3.32 10 -4 10 C-4.33 9.34 -4.66 8.68 -5 8 C-5.825 8.33 -6.65 8.66 -7.5 9 C-11.5873983 10.16782809 -14.76923344 10.1458885 -19 10 C-15.84223816 6.35224064 -12.88854654 4.92739193 -8.375 3.3125 C-7.22773437 2.89613281 -6.08046875 2.47976562 -4.8984375 2.05078125 C-3.94195312 1.70402344 -2.98546875 1.35726562 -2 1 C-1.34 0.67 -0.68 0.34 0 0 Z " fill="#681692" transform="translate(66,37)"/>
<path d="M0 0 C1.08754464 0.78587142 2.17114736 1.577238 3.25 2.375 C4.90172812 3.07786303 6.56301918 3.76155243 8.25 4.375 C8.25 4.705 8.25 5.035 8.25 5.375 C0 5.375 -8.25 5.375 -16.75 5.375 C-5.35183299 -3.17362525 -5.35183299 -3.17362525 0 0 Z " fill="#A97282" transform="translate(42.75,86.625)"/>
<path d="M0 0 C1 2 1 2 0.875 5.375 C1.00605183 9.17550316 1.43210977 10.32511434 4 13 C2.39125 13.12375 2.39125 13.12375 0.75 13.25 C-3.2738451 14.05476902 -4.48169253 14.87729874 -7 18 C-6.9175 16.9275 -6.835 15.855 -6.75 14.75 C-6.63762783 10.95990735 -6.63762783 10.95990735 -9 8.5625 C-9.66 8.046875 -10.32 7.53125 -11 7 C-9.9275 6.95875 -8.855 6.9175 -7.75 6.875 C-3.76438296 6.35391691 -3.76438296 6.35391691 -1.5625 2.9375 C-1.046875 1.968125 -0.53125 0.99875 0 0 Z " fill="#E0DAE6" transform="translate(73,26)"/>
<path d="M0 0 C0.39421143 0.48895752 0.78842285 0.97791504 1.19458008 1.48168945 C3.55373662 3.46567789 4.83656999 3.348426 7.88671875 3.29296875 C8.82451172 3.28330078 9.76230469 3.27363281 10.72851562 3.26367188 C11.70498047 3.23853516 12.68144531 3.21339844 13.6875 3.1875 C15.16959961 3.16719727 15.16959961 3.16719727 16.68164062 3.14648438 C19.12164231 3.11112203 21.56054719 3.06177033 24 3 C23.67 3.99 23.34 4.98 23 6 C14.98340366 7.12513633 7.07861415 7.09579384 -1 7 C-0.67 4.69 -0.34 2.38 0 0 Z " fill="#B04FCC" transform="translate(32,61)"/>
<path d="M0 0 C0.33 0 0.66 0 1 0 C1 2.31 1 4.62 1 7 C2.32 6.67 3.64 6.34 5 6 C6.14507772 11.28497409 6.14507772 11.28497409 6 14 C3.5625 16.5 3.5625 16.5 1 18 C0.34 17.67 -0.32 17.34 -1 17 C-1.02721176 15.10424749 -1.04649136 13.20838021 -1.0625 11.3125 C-1.07410156 10.25675781 -1.08570312 9.20101562 -1.09765625 8.11328125 C-1.00865425 5.27589738 -0.64939838 2.7561081 0 0 Z " fill="#DA9DD9" transform="translate(23,63)"/>
<path d="M0 0 C4.47238653 1.41807378 8.71146306 3.11304374 13 5 C11 7 11 7 8.84521484 7.13525391 C7.97590332 7.08288574 7.1065918 7.03051758 6.2109375 6.9765625 C4.79941406 6.89921875 4.79941406 6.89921875 3.359375 6.8203125 C2.37453125 6.75585938 1.3896875 6.69140625 0.375 6.625 C-0.61757812 6.56828125 -1.61015625 6.5115625 -2.6328125 6.453125 C-5.08924767 6.31140759 -7.54469735 6.15997723 -10 6 C-6.71536341 3.81024227 -3.79303725 3.00193437 0 2 C0 1.34 0 0.68 0 0 Z " fill="#AA7383" transform="translate(97,85)"/>
<path d="M0 0 C1.65 1.65 3.3 3.3 5 5 C4.60404157 6.48484412 4.18249294 7.9628831 3.75 9.4375 C3.40195312 10.67306641 3.40195312 10.67306641 3.046875 11.93359375 C2 14 2 14 -0.109375 14.78515625 C-0.73328125 14.85605469 -1.3571875 14.92695312 -2 15 C-2.3690205 4.44191344 -2.3690205 4.44191344 0 0 Z " fill="#A43BC9" transform="translate(26,55)"/>
<path d="M0 0 C-2 2 -2 2 -4.30664062 2.18286133 C-7.37218804 2.07439054 -10.43595769 1.95814341 -13.5 1.8125 C-14.57121094 1.78091797 -15.64242187 1.74933594 -16.74609375 1.71679688 C-17.76832031 1.67232422 -18.79054688 1.62785156 -19.84375 1.58203125 C-21.25430664 1.52366089 -21.25430664 1.52366089 -22.69335938 1.46411133 C-25 1 -25 1 -27 -2 C-26.17628906 -1.81179687 -25.35257813 -1.62359375 -24.50390625 -1.4296875 C-19.78845348 -0.85142685 -15.46221616 -1.6702229 -10.83398438 -2.50390625 C-6.17587974 -3.22053773 -3.74607479 -2.90631144 0 0 Z " fill="#A033C7" transform="translate(63,61)"/>
<path d="M0 0 C2.88437779 1.29299694 4.87219421 2.65941363 7 5 C6.67 5.99 6.34 6.98 6 8 C-0.27 7.34 -6.54 6.68 -13 6 C-9.52630934 4.26315467 -7.92380063 3.69915888 -4.25 3.375 C-3.05117188 3.26285156 -3.05117188 3.26285156 -1.828125 3.1484375 C-1.22484375 3.09945312 -0.6215625 3.05046875 0 3 C0 2.01 0 1.02 0 0 Z " fill="#3B0C61" transform="translate(59,31)"/>
<path d="M0 0 C4.29 0 8.58 0 13 0 C11.35 1.32 9.7 2.64 8 4 C7.34 4.66 6.68 5.32 6 6 C3.31160615 6.26991906 0.70858064 6.08737357 -2 6 C-1.34 4.02 -0.68 2.04 0 0 Z " fill="#651690" transform="translate(35,42)"/>
<path d="M0 0 C0.66 1.32 1.32 2.64 2 4 C0 6 0 6 -2.6796875 6.23046875 C-4.26136719 6.20919922 -4.26136719 6.20919922 -5.875 6.1875 C-6.92429687 6.18105469 -7.97359375 6.17460938 -9.0546875 6.16796875 C-11.54066704 6.02619538 -13.62847586 5.7160399 -16 5 C-16 4.34 -16 3.68 -16 3 C-14.98679687 3.05220703 -14.98679687 3.05220703 -13.953125 3.10546875 C-12.61507812 3.14607422 -12.61507812 3.14607422 -11.25 3.1875 C-10.36828125 3.22230469 -9.4865625 3.25710937 -8.578125 3.29296875 C-5.00509727 2.88694287 -3.40083712 0 0 0 Z " fill="#4B0E71" transform="translate(96,35)"/>
<path d="M0 0 C0.33 0 0.66 0 1 0 C1.33 3.63 1.66 7.26 2 11 C-8.71428571 7.85714286 -8.71428571 7.85714286 -13 6 C-9.5980513 3.90649311 -6.94727588 3.82057837 -3 4 C-3 4.66 -3 5.32 -3 6 C-2.01 6 -1.02 6 0 6 C0 4.02 0 2.04 0 0 Z " fill="#D28AD0" transform="translate(56,69)"/>
<path d="M0 0 C-1.31084451 2.62168902 -2.26042633 2.99794118 -5 4 C-8.015625 3.9765625 -8.015625 3.9765625 -11.25 3.625 C-12.32765625 3.51414062 -13.4053125 3.40328125 -14.515625 3.2890625 C-15.74539062 3.14597656 -15.74539062 3.14597656 -17 3 C-12.05861701 -1.94138299 -6.34133545 -1.04279739 0 0 Z " fill="#E4975C" transform="translate(65,114)"/>
<path d="M0 0 C0 0.99 0 1.98 0 3 C-5.07476794 4.26305335 -9.72796354 5.27036084 -15 5 C-15.33 4.34 -15.66 3.68 -16 3 C-13.70887834 2.49750857 -11.41708499 1.99807883 -9.125 1.5 C-7.84882812 1.2215625 -6.57265625 0.943125 -5.2578125 0.65625 C-2 0 -2 0 0 0 Z " fill="#2E0551" transform="translate(59,31)"/>
<path d="M0 0 C0.99 0 1.98 0 3 0 C3.33 0.99 3.66 1.98 4 3 C-0.625 7 -0.625 7 -4 7 C-4.66 5.02 -5.32 3.04 -6 1 C-4.7934375 1.0309375 -4.7934375 1.0309375 -3.5625 1.0625 C-1.06645115 1.29633621 -1.06645115 1.29633621 0 0 Z " fill="#DF997F" transform="translate(91,104)"/>
<path d="M0 0 C2 0.3125 2 0.3125 4 1 C4.33 1.66 4.66 2.32 5 3 C4.195625 2.690625 4.195625 2.690625 3.375 2.375 C0.93566719 1.78988841 0.93566719 1.78988841 -1.5 2.9375 C-6.57873354 4.4792584 -11.72571605 4.53690316 -17 4 C-17.66 3.34 -18.32 2.68 -19 2 C-13.81243572 0.84720794 -8.79165766 0.95858976 -3.51171875 1.0625 C-1.0604712 1.29023727 -1.0604712 1.29023727 0 0 Z " fill="#5A1483" transform="translate(97,39)"/>
<path d="M0 0 C0 0.66 0 1.32 0 2 C0.99 1.67 1.98 1.34 3 1 C3.66 3.31 4.32 5.62 5 8 C-1.70212766 6.06382979 -1.70212766 6.06382979 -4 3 C-4 2.34 -4 1.68 -4 1 C-2 0 -2 0 0 0 Z " fill="#D592D1" transform="translate(111,75)"/>
<path d="M0 0 C2.375 1 2.375 1 4 2 C3 4 3 4 1 6 C-1.97 5.01 -4.94 4.02 -8 3 C-8 2.34 -8 1.68 -8 1 C-5.2201184 -0.3899408 -3.0813674 -0.18488204 0 0 Z " fill="#D69D87" transform="translate(70,85)"/>
<path d="M0 0 C0.7734375 0.2165625 0.7734375 0.2165625 1.5625 0.4375 C5.07330457 1.24768567 8.3996635 1.06000561 12 1 C12.33 1.66 12.66 2.32 13 3 C10.0384304 4.4807848 7.16493705 4.35314037 3.875 4.5625 C2.59367187 4.64628906 1.31234375 4.73007812 -0.0078125 4.81640625 C-0.99523438 4.87699219 -1.98265625 4.93757813 -3 5 C-1.125 1.125 -1.125 1.125 0 0 Z " fill="#57137E" transform="translate(39,38)"/>
<path d="M0 0 C0 0.66 0 1.32 0 2 C0.66 2 1.32 2 2 2 C2 2.99 2 3.98 2 5 C3.65 5.33 5.3 5.66 7 6 C7 6.33 7 6.66 7 7 C3.7 7 0.4 7 -3 7 C-3 6.01 -3 5.02 -3 4 C-4.43750191 2.31201173 -4.43750191 2.31201173 -6 1 C-3.92446352 0.4465236 -2.15634036 0 0 0 Z " fill="#E3A177" transform="translate(47,111)"/>
<path d="M0 0 C0.66 0.66 1.32 1.32 2 2 C1.67 2.33 1.34 2.66 1 3 C2.65 3.33 4.3 3.66 6 4 C4.515 6.475 4.515 6.475 3 9 C2.01 8.67 1.02 8.34 0 8 C0 7.34 0 6.68 0 6 C-0.66 6 -1.32 6 -2 6 C-1.125 1.125 -1.125 1.125 0 0 Z " fill="#8123A9" transform="translate(33,44)"/>
<path d="M0 0 C0.33 0 0.66 0 1 0 C1 2.31 1 4.62 1 7 C2.32 6.67 3.64 6.34 5 6 C4.67 8.31 4.34 10.62 4 13 C2.68 13 1.36 13 0 13 C0 8.71 0 4.42 0 0 Z " fill="#C572D3" transform="translate(23,63)"/>
<path d="M0 0 C6.93 0 13.86 0 21 0 C20.01 1.485 20.01 1.485 19 3 C12.73 2.34 6.46 1.68 0 1 C0 0.67 0 0.34 0 0 Z " fill="#6B1395" transform="translate(75,44)"/>
<path d="M0 0 C6.39534884 0.69767442 6.39534884 0.69767442 9 2 C8.67 2.99 8.34 3.98 8 5 C7.01 5 6.02 5 5 5 C5 4.34 5 3.68 5 3 C3.35 3.66 1.7 4.32 0 5 C-0.5625 3.0625 -0.5625 3.0625 -1 1 C-0.67 0.67 -0.34 0.34 0 0 Z " fill="#CB7DD2" transform="translate(106,72)"/>
<path d="M0 0 C0.66 0.33 1.32 0.66 2 1 C-2.80239407 5.77744657 -6.07011948 8.85562749 -13 9 C-9.49391962 4.88416651 -4.95371163 2.09432982 0 0 Z " fill="#E4DCE5" transform="translate(40,36)"/>
<path d="M0 0 C0.33 0.99 0.66 1.98 1 3 C1.99 3 2.98 3 4 3 C4.6875 4.8125 4.6875 4.8125 5 7 C3.6875 8.75 3.6875 8.75 2 10 C1.34 10 0.68 10 0 10 C0 6.7 0 3.4 0 0 Z " fill="#B354CE" transform="translate(24,60)"/>
<path d="M0 0 C0 4.13781054 -1.71509607 5.20919996 -4.5 8.1875 C-5.3353125 9.08855469 -6.170625 9.98960938 -7.03125 10.91796875 C-8.00578125 11.94857422 -8.00578125 11.94857422 -9 13 C-9.99 12.67 -10.98 12.34 -12 12 C-11.38125 11.7525 -10.7625 11.505 -10.125 11.25 C-7.90268805 10.20218211 -7.90268805 10.20218211 -7.125 8.25 C-5.41301863 4.82603725 -2.75842221 2.63849081 0 0 Z " fill="#3C234D" transform="translate(20,34)"/>
<path d="M0 0 C0.99 0.66 1.98 1.32 3 2 C3 2.66 3 3.32 3 4 C3.99 4.33 4.98 4.66 6 5 C5.34 5.66 4.68 6.32 4 7 C4 6.34 4 5.68 4 5 C2.700625 4.87625 1.40125 4.7525 0.0625 4.625 C-2.15234375 4.4140625 -2.15234375 4.4140625 -4 4 C-4.33 3.34 -4.66 2.68 -5 2 C-2.6875 0.875 -2.6875 0.875 0 0 Z " fill="#E7AFCB" transform="translate(75,83)"/>
<path d="M0 0 C0.66 0.99 1.32 1.98 2 3 C1.401875 3.804375 0.80375 4.60875 0.1875 5.4375 C-2.42741231 9.31799265 -3.69222749 13.54168462 -5 18 C-5.33 18 -5.66 18 -6 18 C-5.61330541 11.03949747 -3.36561591 6.0605925 0 0 Z " fill="#EACAD9" transform="translate(34,54)"/>
<path d="M0 0 C0.66 0.33 1.32 0.66 2 1 C2.33 1.99 2.66 2.98 3 4 C2 5 2 5 0.15234375 5.09765625 C-1.8984375 5.06510417 -3.94921875 5.03255208 -6 5 C-3.375 1.125 -3.375 1.125 0 0 Z " fill="#711A9C" transform="translate(39,43)"/>
<path d="M0 0 C5.445 1.485 5.445 1.485 11 3 C9.68 4.32 8.36 5.64 7 7 C5.83040013 6.02433888 4.66438823 5.044375 3.5 4.0625 C2.8503125 3.51722656 2.200625 2.97195312 1.53125 2.41015625 C1.0259375 1.94480469 0.520625 1.47945313 0 1 C0 0.67 0 0.34 0 0 Z " fill="#452C59" transform="translate(23,111)"/>
<path d="M0 0 C5.61 0 11.22 0 17 0 C17 0.33 17 0.66 17 1 C16.07316406 1.04898438 15.14632812 1.09796875 14.19140625 1.1484375 C12.99386719 1.22320312 11.79632813 1.29796875 10.5625 1.375 C8.77005859 1.47941406 8.77005859 1.47941406 6.94140625 1.5859375 C5.97074219 1.72257812 5.00007813 1.85921875 4 2 C3.67 2.66 3.34 3.32 3 4 C2.34 4 1.68 4 1 4 C0.67 2.68 0.34 1.36 0 0 Z " fill="#DEA3B5" transform="translate(26,92)"/>
<path d="M0 0 C1.2077558 3.62326739 0.54311128 4.64146369 -1 8 C-1.33 7.01 -1.66 6.02 -2 5 C-3.65 5 -5.3 5 -7 5 C-7 4.34 -7 3.68 -7 3 C-4.69 2.01 -2.38 1.02 0 0 Z " fill="#591780" transform="translate(66,37)"/>
<path d="M0 0 C1.98 0 3.96 0 6 0 C6 2.31 6 4.62 6 7 C3.95880212 5.38405168 1.95927063 3.7143618 0 2 C0 1.34 0 0.68 0 0 Z " fill="#ECE5EE" transform="translate(122,38)"/>
<path d="M0 0 C-2.6860286 1.79068573 -4.6626589 2.66055791 -7.6875 3.625 C-8.89986328 4.01558594 -8.89986328 4.01558594 -10.13671875 4.4140625 C-10.75160156 4.60742188 -11.36648437 4.80078125 -12 5 C-12.66 4.34 -13.32 3.68 -14 3 C-9.07015675 0.96006486 -5.42039575 -0.40652968 0 0 Z " fill="#CEB9C3" transform="translate(64,38)"/>
<path d="M0 0 C0 3.57575896 -1.08840607 5.05295935 -3 8 C-5.475 7.01 -5.475 7.01 -8 6 C-5.33333333 4 -2.66666667 2 0 0 Z " fill="#3F2855" transform="translate(121,11)"/>
<path d="M0 0 C0.33 0 0.66 0 1 0 C1 1.98 1 3.96 1 6 C1.66 6 2.32 6 3 6 C2.67 7.65 2.34 9.3 2 11 C1.01 11 0.02 11 -1 11 C-0.67 7.37 -0.34 3.74 0 0 Z " fill="#DA9DDB" transform="translate(81,69)"/>
<path d="M0 0 C0.33 0 0.66 0 1 0 C1 3.3 1 6.6 1 10 C0.34 10 -0.32 10 -1 10 C-2.23076923 4.58461538 -2.23076923 4.58461538 -1.0625 1.625 C-0.5365625 0.820625 -0.5365625 0.820625 0 0 Z " fill="#4A325B" transform="translate(2,80)"/>
<path d="M0 0 C2.12508244 3.18762365 2.5020163 5.26512223 3 9 C0.47411298 6.63707344 -0.88820837 5.33537489 -2 2 C-1.34 2 -0.68 2 0 2 C0 1.34 0 0.68 0 0 Z " fill="#4A3662" transform="translate(11,89)"/>
<path d="M0 0 C2.64 0.66 5.28 1.32 8 2 C5 4 5 4 2.3125 3.625 C1.549375 3.41875 0.78625 3.2125 0 3 C0 2.01 0 1.02 0 0 Z " fill="#350859" transform="translate(74,33)"/>
</svg>
